<svg width="36" height="36" viewBox="0 0 36 36" fill="none" xmlns="http://www.w3.org/2000/svg">
<path d="M22.9999 10H21.9999H12.5699C11.4999 10 10.5899 10.67 10.3799 11.61L9.03995 17.61C8.76995 18.85 9.81995 20 11.2299 20H15.4599L13.9399 24.94C13.6199 25.97 14.4599 27 15.6199 27C16.1999 27 16.7599 26.76 17.1399 26.35L22.9999 20H26.9999V10H22.9999ZM16.3999 25.67C16.2099 25.88 15.9199 26 15.6199 26C15.3599 26 15.1199 25.89 14.9899 25.7C14.9199 25.6 14.8399 25.44 14.8999 25.23L16.4199 20.29L16.8199 19H15.4599H11.2299C10.8199 19 10.4299 18.83 10.1999 18.54C10.0799 18.39 9.94995 18.14 10.0199 17.82L11.3599 11.82C11.4599 11.35 11.9699 11 12.5699 11H21.9999V19.61L16.3999 25.67ZM25.9999 19H22.9999V11H25.9999V19Z" fill="white"/>
</svg>
