<svg width="36" height="40" viewBox="0 0 36 40" fill="none" xmlns="http://www.w3.org/2000/svg">
<path d="M13.5 20C13.5 20.83 12.83 21.5 12 21.5C11.17 21.5 10.5 20.83 10.5 20C10.5 19.17 11.17 18.5 12 18.5C12.83 18.5 13.5 19.17 13.5 20ZM18 18.5C17.17 18.5 16.5 19.17 16.5 20C16.5 20.83 17.17 21.5 18 21.5C18.83 21.5 19.5 20.83 19.5 20C19.5 19.17 18.83 18.5 18 18.5ZM24 18.5C23.17 18.5 22.5 19.17 22.5 20C22.5 20.83 23.17 21.5 24 21.5C24.83 21.5 25.5 20.83 25.5 20C25.5 19.17 24.83 18.5 24 18.5Z" fill="white"/>
</svg>
